<svg width="35" height="39" viewBox="0 0 35 39" fill="none" xmlns="http://www.w3.org/2000/svg">
<path d="M34.4372 5.45822C34.3672 4.95538 34.0054 4.54176 33.5163 4.40581L17.8416 0.0466471C17.6181 -0.015549 17.3821 -0.015549 17.1584 0.0466471L1.48367 4.40581C0.994596 4.54176 0.632806 4.95521 0.562793 5.45822C0.471878 6.11195 -1.60217 21.5583 3.71763 29.2424C9.03115 36.9174 16.8697 38.8842 17.2008 38.9642C17.2991 38.988 17.3994 38.9997 17.5 38.9997C17.6006 38.9997 17.7009 38.9879 17.7993 38.9642C18.1305 38.8842 25.969 36.9174 31.2824 29.2424C36.6022 21.5585 34.5281 6.11212 34.4372 5.45822ZM27.6082 14.476L16.9165 25.1677C16.6677 25.4165 16.3414 25.5411 16.0153 25.5411C15.6892 25.5411 15.3629 25.4167 15.1141 25.1677L8.5035 18.5571C8.2644 18.3182 8.13015 17.994 8.13015 17.656C8.13015 17.318 8.26457 16.9937 8.5035 16.7548L9.81607 15.4422C10.3138 14.9446 11.1208 14.9445 11.6184 15.4422L16.0153 19.8391L24.4933 11.3609C24.7323 11.1218 25.0565 10.9875 25.3945 10.9875C25.7325 10.9875 26.0567 11.1218 26.2957 11.3609L27.6082 12.6735C28.106 13.1712 28.106 13.9782 27.6082 14.476Z" fill="#192F7C"/>
</svg>
