<svg width="18" height="18" viewBox="0 0 18 18" fill="none" xmlns="http://www.w3.org/2000/svg">
<path d="M9 1.8C5.02355 1.8 1.8 5.02355 1.8 9C1.8 12.9765 5.02355 16.2 9 16.2C12.9765 16.2 16.2 12.9765 16.2 9C16.2 5.02355 12.9765 1.8 9 1.8ZM0 9C0 4.02944 4.02944 0 9 0C13.9706 0 18 4.02944 18 9C18 13.9706 13.9706 18 9 18C4.02944 18 0 13.9706 0 9Z" fill="#192F7C"/>
<path d="M9 10.8C8.50294 10.8 8.1 10.3971 8.1 9.9V9C8.1 8.50294 8.50294 8.1 9 8.1C9.49706 8.1 9.9 8.50294 9.9 9V9.9C9.9 10.3971 9.49706 10.8 9 10.8Z" fill="#192F7C"/>
<path d="M7.65 13.05C7.65 12.3044 8.25442 11.7 9 11.7C9.74558 11.7 10.35 12.3044 10.35 13.05C10.35 13.7956 9.74558 14.4 9 14.4C8.25442 14.4 7.65 13.7956 7.65 13.05Z" fill="#192F7C"/>
<path d="M9.35094 5.23023C8.48961 5.18922 7.76735 5.67036 7.63775 6.44796C7.55604 6.93826 7.09233 7.26947 6.60204 7.18776C6.11175 7.10604 5.78053 6.64234 5.86225 6.15204C6.18264 4.22964 7.93539 3.36079 9.43656 3.43227C10.2055 3.46889 10.9958 3.74489 11.6043 4.3135C12.2279 4.89624 12.6 5.73099 12.6 6.75C12.6 7.91218 12.1427 8.77402 11.3555 9.29885C10.6326 9.78074 9.74657 9.9 9 9.9C8.50294 9.9 8.1 9.49706 8.1 9C8.1 8.50294 8.50294 8.1 9 8.1C9.60343 8.1 10.0674 7.99427 10.357 7.80116C10.5823 7.65098 10.8 7.38783 10.8 6.75C10.8 6.19401 10.6096 5.84751 10.3754 5.62869C10.1261 5.39574 9.76322 5.24987 9.35094 5.23023Z" fill="#192F7C"/>
</svg>
