<svg width="21" height="17" viewBox="0 0 21 17" fill="none" xmlns="http://www.w3.org/2000/svg">
<path d="M2.1 2.79809C2.24685 2.73802 2.4234 2.67167 2.62802 2.60475C3.35174 2.36803 4.42366 2.125 5.775 2.125C7.12634 2.125 8.19826 2.36803 8.92198 2.60475C9.1266 2.67167 9.30315 2.73802 9.45 2.79809V14.3575C8.55622 14.0766 7.30817 13.8125 5.775 13.8125C4.24183 13.8125 2.99378 14.0766 2.1 14.3575V2.79809ZM10.5 0.940609C10.263 0.834265 9.95036 0.707858 9.56786 0.582752C8.66736 0.288216 7.37679 0 5.775 0C4.17321 0 2.88264 0.288216 1.98214 0.582752C1.53191 0.730012 1.17847 0.879074 0.931237 0.995097C0.807565 1.05313 0.710271 1.103 0.64052 1.14038C0.605637 1.15907 0.577618 1.17465 0.556608 1.18658L0.530358 1.20169L0.521201 1.20707L0.517621 1.2092L0.516081 1.21012C0.514016 1.21135 0.257358 1.36526 0.514707 1.21094C0.195649 1.40226 0 1.74971 0 2.125V15.9375C0 16.3193 0.202389 16.6717 0.530172 16.8607C0.857744 17.0495 1.26022 17.0462 1.58467 16.8519C1.58181 16.8536 1.58001 16.8547 1.58001 16.8547L1.58139 16.8539L1.58303 16.8529L1.58467 16.8519C1.59105 16.8483 1.60395 16.8412 1.62329 16.8308C1.66197 16.8101 1.72618 16.7769 1.81476 16.7354C1.99204 16.6522 2.26613 16.5356 2.62802 16.4172C3.35174 16.1805 4.42366 15.9375 5.775 15.9375C7.12634 15.9375 8.19826 16.1805 8.92198 16.4172C9.28386 16.5356 9.55796 16.6522 9.73524 16.7354C9.82382 16.7769 9.88803 16.8101 9.92671 16.8308C9.94605 16.8412 9.95898 16.8484 9.96537 16.8521C9.96825 16.8537 9.96999 16.8547 9.96999 16.8547M9.96999 16.8547L9.96861 16.8539L9.96697 16.8529L9.96537 16.8521C10.295 17.0491 10.7051 17.0492 11.0347 16.8519C11.0411 16.8483 11.054 16.8412 11.0733 16.8308C11.112 16.8101 11.1762 16.7769 11.2648 16.7354C11.442 16.6522 11.7161 16.5356 12.078 16.4172C12.8017 16.1805 13.8737 15.9375 15.225 15.9375C16.5763 15.9375 17.6483 16.1805 18.372 16.4172C18.7339 16.5356 19.008 16.6522 19.1852 16.7354C19.2738 16.7769 19.338 16.8101 19.3767 16.8308C19.396 16.8412 19.409 16.8484 19.4154 16.8521L19.4165 16.8526C19.7407 17.0462 20.1426 17.0493 20.4698 16.8607C20.7976 16.6717 21 16.3193 21 15.9375V2.125C21 1.74971 20.8043 1.40226 20.4853 1.21094L20.4839 1.21012L20.4824 1.2092L20.4788 1.20707L20.4696 1.20169L20.4434 1.18658C20.4224 1.17465 20.3944 1.15907 20.3595 1.14038C20.2897 1.103 20.1924 1.05313 20.0688 0.995097C19.8215 0.879074 19.4681 0.730012 19.0179 0.582752C18.1174 0.288216 16.8268 0 15.225 0C13.6232 0 12.3326 0.288216 11.4321 0.582752C11.0496 0.707858 10.737 0.834265 10.5 0.940609M18.9 2.79809V14.3575C18.0062 14.0766 16.7582 13.8125 15.225 13.8125C13.6918 13.8125 12.4438 14.0766 11.55 14.3575V2.79809C11.6969 2.73802 11.8734 2.67167 12.078 2.60475C12.8017 2.36803 13.8737 2.125 15.225 2.125C16.5763 2.125 17.6483 2.36803 18.372 2.60475C18.5766 2.67167 18.7531 2.73802 18.9 2.79809ZM19.4154 3.03955C19.4182 3.04117 19.42 3.0422 19.42 3.0422L19.4186 3.04139L19.4154 3.03955ZM19.4154 16.8521L19.4188 16.854L19.4165 16.8526" fill="#192F7C"/>
</svg>
