<svg width="20" height="15" viewBox="0 0 20 15" fill="none" xmlns="http://www.w3.org/2000/svg">
<path d="M19.53 1.15C19.378 1.06223 19.2055 1.01603 19.03 1.01603C18.8545 1.01603 18.682 1.06223 18.53 1.15L15 2.89C14.9715 2.11357 14.6429 1.37847 14.0834 0.839439C13.5238 0.300405 12.777 -0.000521775 12 6.79157e-07H3C2.20435 6.79157e-07 1.44129 0.316071 0.87868 0.87868C0.316071 1.44129 0 2.20435 0 3V12C0 12.7957 0.316071 13.5587 0.87868 14.1213C1.44129 14.6839 2.20435 15 3 15H12C12.777 15.0005 13.5238 14.6996 14.0834 14.1606C14.6429 13.6215 14.9715 12.8864 15 12.11L18.56 13.89C18.6963 13.9599 18.8468 13.9975 19 14C19.1872 14.0006 19.3709 13.9486 19.53 13.85C19.6741 13.7599 19.7929 13.6346 19.8751 13.4859C19.9574 13.3372 20.0003 13.1699 20 13V2C20.0003 1.83006 19.9574 1.66283 19.8751 1.51411C19.7929 1.36538 19.6741 1.24007 19.53 1.15ZM13 12C13 12.2652 12.8946 12.5196 12.7071 12.7071C12.5196 12.8946 12.2652 13 12 13H3C2.73478 13 2.48043 12.8946 2.29289 12.7071C2.10536 12.5196 2 12.2652 2 12V3C2 2.73478 2.10536 2.48043 2.29289 2.29289C2.48043 2.10536 2.73478 2 3 2H12C12.2652 2 12.5196 2.10536 12.7071 2.29289C12.8946 2.48043 13 2.73478 13 3V12ZM18 11.38L15 9.88V5.12L18 3.62V11.38Z" fill="#192F7C"/>
<path d="M7.5 5L8.38168 6.28647L9.87764 6.72746L8.92658 7.96353L8.96946 9.52254L7.5 9L6.03054 9.52254L6.07342 7.96353L5.12236 6.72746L6.61832 6.28647L7.5 5Z" fill="#192F7C"/>
</svg>
