<svg width="25" height="25" viewBox="0 0 25 25" fill="none" xmlns="http://www.w3.org/2000/svg">
<path d="M9.73004 2.65979C10.7548 0.19591 14.2452 0.195909 15.27 2.65979L16.4251 5.43711C16.8571 6.47581 17.834 7.18552 18.9553 7.27542L21.9537 7.5158C24.6137 7.72905 25.6922 11.0486 23.6656 12.7846L21.3812 14.7414C20.5268 15.4733 20.1537 16.6216 20.4147 17.7159L21.1127 20.6418C21.7318 23.2374 18.9081 25.289 16.6308 23.8981L14.0638 22.3301C13.1037 21.7437 11.8963 21.7437 10.9362 22.3301L8.36923 23.8981C6.09193 25.289 3.26817 23.2374 3.88734 20.6418L4.58527 17.7159C4.84629 16.6216 4.47317 15.4733 3.61881 14.7414L1.33438 12.7846C-0.692231 11.0486 0.386346 7.72905 3.04631 7.5158L6.04466 7.27542C7.16603 7.18552 8.14286 6.47582 8.57488 5.43711L9.73004 2.65979Z" fill="#D4D4D4"/>
</svg>
