<svg width="25" height="24" viewBox="0 0 25 24" fill="none" xmlns="http://www.w3.org/2000/svg">
<path d="M9.70708 2.12196C10.703 -0.417694 14.297 -0.417698 15.2929 2.12195L16.1835 4.39302C16.6004 5.45603 17.5846 6.19023 18.7223 6.28697L21.3367 6.50927C23.9469 6.73121 25.0388 9.95739 23.0998 11.7189L20.8544 13.7589C20.0553 14.4849 19.708 15.5843 19.9449 16.6377L20.585 19.4837C21.1748 22.1064 18.2831 24.1214 16.027 22.6598L14.1311 21.4316C13.1387 20.7888 11.8613 20.7888 10.8689 21.4316L8.97302 22.6598C6.7169 24.1214 3.82519 22.1064 4.41504 19.4837L5.05513 16.6377C5.29203 15.5843 4.94467 14.4849 4.14557 13.7589L1.90015 11.7189C-0.0387585 9.95739 1.05311 6.73121 3.66332 6.50927L6.27772 6.28697C7.41544 6.19023 8.3996 5.45603 8.81647 4.39302L9.70708 2.12196Z" fill="#FFC700"/>
</svg>
