<svg width="17" height="10" viewBox="0 0 17 10" fill="none" xmlns="http://www.w3.org/2000/svg">
<path d="M16.523 0.465525C16.2208 0.167361 15.8121 2.76467e-06 15.3861 2.69018e-06C14.96 2.61569e-06 14.5513 0.16736 14.2491 0.465524L8.45968 6.13261L2.75087 0.465522C2.44872 0.167358 2.03999 3.56683e-07 1.61395 2.82191e-07C1.1879 2.077e-07 0.779173 0.167358 0.477022 0.465522C0.32587 0.614344 0.205897 0.791402 0.124024 0.986483C0.0421515 1.18156 -2.43177e-07 1.39081 -2.80127e-07 1.60214C-3.17078e-07 1.81348 0.0421513 2.02272 0.124024 2.2178C0.205896 2.41288 0.325869 2.58994 0.477021 2.73876L7.31469 9.52647C7.46461 9.67651 7.64297 9.79561 7.83949 9.87688C8.03601 9.95816 8.24679 10 8.45968 10C8.67257 10 8.88335 9.95816 9.07987 9.87688C9.27639 9.79561 9.45475 9.67651 9.60467 9.52647L16.523 2.73876C16.6741 2.58994 16.7941 2.41288 16.876 2.2178C16.9578 2.02272 17 1.81348 17 1.60214C17 1.39081 16.9578 1.18157 16.876 0.986486C16.7941 0.791405 16.6741 0.614347 16.523 0.465525Z" fill="#192F7C"/>
</svg>
