<svg width="14" height="14" viewBox="0 0 14 14" fill="none" xmlns="http://www.w3.org/2000/svg">
<path d="M13.7071 0.292893C14.0976 0.683417 14.0976 1.31658 13.7071 1.70711L1.70711 13.7071C1.31658 14.0976 0.683417 14.0976 0.292893 13.7071C-0.0976311 13.3166 -0.0976311 12.6834 0.292893 12.2929L12.2929 0.292893C12.6834 -0.0976311 13.3166 -0.0976311 13.7071 0.292893Z" fill="white"/>
<path d="M12 14C13.1046 14 14 13.1046 14 12C14 10.8954 13.1046 10 12 10C10.8954 10 10 10.8954 10 12C10 13.1046 10.8954 14 12 14Z" fill="white"/>
<path d="M2 4C3.10457 4 4 3.10457 4 2C4 0.89543 3.10457 2.98023e-08 2 2.98023e-08C0.89543 2.98023e-08 2.98023e-08 0.89543 2.98023e-08 2C2.98023e-08 3.10457 0.89543 4 2 4Z" fill="white"/>
</svg>
