<svg width="20" height="20" viewBox="0 0 20 20" fill="none" xmlns="http://www.w3.org/2000/svg">
<path d="M3.00002 20L15.73 20C16.4318 19.9998 17.1113 19.7535 17.6503 19.304C18.1893 18.8546 18.5537 18.2303 18.68 17.54L19.95 10.54C20.0292 10.1076 20.0123 9.66301 19.9006 9.23782C19.7889 8.81262 19.5851 8.41717 19.3037 8.07945C19.0223 7.74172 18.67 7.46998 18.2719 7.28344C17.8739 7.09691 17.4396 7.00015 17 7L12.44 7L13 5.57C13.233 4.94388 13.3105 4.27061 13.2261 3.60792C13.1416 2.94524 12.8977 2.31292 12.5152 1.76523C12.1327 1.21753 11.6231 0.770795 11.03 0.463342C10.4369 0.155889 9.77806 -0.00310415 9.11002 -9.51947e-07C8.91766 0.000399574 8.7295 0.0562753 8.5681 0.160922C8.40669 0.265569 8.27889 0.41455 8.20002 0.589999L5.35002 7L3.00002 7C2.20438 7 1.44131 7.31607 0.878703 7.87868C0.316094 8.44129 2.3832e-05 9.20435 2.37624e-05 10L2.31505e-05 17C2.30809e-05 17.7956 0.316094 18.5587 0.878702 19.1213C1.44131 19.6839 2.20437 20 3.00002 20ZM7.00002 8.21L9.72002 2.09C9.99833 2.17421 10.2565 2.3145 10.4785 2.50225C10.7005 2.68999 10.8818 2.92121 11.011 3.18165C11.1403 3.4421 11.2149 3.72625 11.2302 4.01662C11.2455 4.30699 11.2012 4.59741 11.1 4.87L10.57 6.3C10.4571 6.60225 10.419 6.92735 10.4589 7.24753C10.4988 7.56771 10.6156 7.87348 10.7994 8.13874C10.9831 8.404 11.2282 8.62087 11.5139 8.77084C11.7996 8.92081 12.1174 8.99943 12.44 9L17 9C17.1469 8.99976 17.2921 9.03189 17.4252 9.09412C17.5583 9.15634 17.676 9.24712 17.77 9.36C17.8664 9.47132 17.9369 9.60254 17.9767 9.74429C18.0164 9.88604 18.0244 10.0348 18 10.18L16.73 17.18C16.6874 17.413 16.5635 17.6232 16.3804 17.7734C16.1973 17.9236 15.9668 18.0039 15.73 18L7.00002 18L7.00002 8.21ZM2.00002 10C2.00002 9.73478 2.10538 9.48043 2.29292 9.29289C2.48045 9.10536 2.73481 9 3.00002 9L5.00002 9L5.00002 18L3.00002 18C2.73481 18 2.48045 17.8946 2.29292 17.7071C2.10538 17.5196 2.00002 17.2652 2.00002 17L2.00002 10Z" fill="#7F7F7F"/>
</svg>
