<svg width="16" height="16" viewBox="0 0 16 16" fill="none" xmlns="http://www.w3.org/2000/svg">
<path d="M12 4H4C3.78783 4 3.58434 4.08429 3.43431 4.23431C3.28429 4.38434 3.2 4.58783 3.2 4.8C3.2 5.01217 3.28429 5.21566 3.43431 5.36569C3.58434 5.51571 3.78783 5.6 4 5.6H12C12.2122 5.6 12.4157 5.51571 12.5657 5.36569C12.7157 5.21566 12.8 5.01217 12.8 4.8C12.8 4.58783 12.7157 4.38434 12.5657 4.23431C12.4157 4.08429 12.2122 4 12 4ZM12 7.2H4C3.78783 7.2 3.58434 7.28429 3.43431 7.43431C3.28429 7.58434 3.2 7.78783 3.2 8C3.2 8.21217 3.28429 8.41566 3.43431 8.56569C3.58434 8.71571 3.78783 8.8 4 8.8H12C12.2122 8.8 12.4157 8.71571 12.5657 8.56569C12.7157 8.41566 12.8 8.21217 12.8 8C12.8 7.78783 12.7157 7.58434 12.5657 7.43431C12.4157 7.28429 12.2122 7.2 12 7.2ZM13.6 0H2.4C1.76348 0 1.15303 0.252856 0.702944 0.702944C0.252856 1.15303 0 1.76348 0 2.4V10.4C0 11.0365 0.252856 11.647 0.702944 12.0971C1.15303 12.5471 1.76348 12.8 2.4 12.8H11.672L14.632 15.768C14.7068 15.8421 14.7954 15.9008 14.8929 15.9406C14.9903 15.9804 15.0947 16.0006 15.2 16C15.3049 16.0027 15.4091 15.9808 15.504 15.936C15.6501 15.876 15.7752 15.7741 15.8634 15.6431C15.9517 15.5121 15.9992 15.3579 16 15.2V2.4C16 1.76348 15.7471 1.15303 15.2971 0.702944C14.847 0.252856 14.2365 0 13.6 0ZM14.4 13.272L12.568 11.432C12.4932 11.3579 12.4046 11.2992 12.3071 11.2594C12.2097 11.2196 12.1053 11.1994 12 11.2H2.4C2.18783 11.2 1.98434 11.1157 1.83431 10.9657C1.68429 10.8157 1.6 10.6122 1.6 10.4V2.4C1.6 2.18783 1.68429 1.98434 1.83431 1.83431C1.98434 1.68429 2.18783 1.6 2.4 1.6H13.6C13.8122 1.6 14.0157 1.68429 14.1657 1.83431C14.3157 1.98434 14.4 2.18783 14.4 2.4V13.272Z" fill="#192F7C"/>
</svg>
