<svg width="140" height="140" viewBox="0 0 140 140" fill="none" xmlns="http://www.w3.org/2000/svg">
<g filter="url(#filter0_d_1_322)">
<path d="M78 66.54L68 60.76C67.3922 60.4091 66.7028 60.2243 66.001 60.2241C65.2992 60.2239 64.6097 60.4084 64.0018 60.759C63.3938 61.1096 62.8888 61.6139 62.5374 62.2214C62.1861 62.8289 62.0007 63.5182 62 64.22V75.78C62.0007 76.4814 62.1859 77.1704 62.5369 77.7777C62.888 78.385 63.3925 78.8893 64 79.24C64.6081 79.5911 65.2979 79.7759 66 79.7759C66.7022 79.7759 67.3919 79.5911 68 79.24L78 73.46C78.6062 73.1084 79.1093 72.6037 79.4591 71.9964C79.8088 71.3892 79.9929 70.7008 79.9929 70C79.9929 69.2992 79.8088 68.6108 79.4591 68.0035C79.1093 67.3963 78.6062 66.8916 78 66.54ZM76 70L66 75.78V64.22L76 70ZM70 50C66.0444 50 62.1776 51.173 58.8886 53.3706C55.5996 55.5682 53.0362 58.6918 51.5224 62.3463C50.0087 66.0009 49.6126 70.0222 50.3843 73.9018C51.156 77.7814 53.0608 81.3451 55.8579 84.1421C58.6549 86.9392 62.2186 88.844 66.0982 89.6157C69.9778 90.3874 73.9992 89.9913 77.6537 88.4776C81.3082 86.9638 84.4318 84.4004 86.6294 81.1114C88.827 77.8224 90 73.9556 90 70C90 67.3736 89.4827 64.7728 88.4776 62.3463C87.4725 59.9198 85.9993 57.715 84.1421 55.8579C82.285 54.0007 80.0802 52.5275 77.6537 51.5224C75.2272 50.5173 72.6264 50 70 50ZM70 86C66.8355 86 63.7421 85.0616 61.1109 83.3035C58.4797 81.5454 56.4289 79.0465 55.2179 76.1229C54.0069 73.1993 53.6901 69.9822 54.3074 66.8786C54.9248 63.7749 56.4487 60.9239 58.6863 58.6863C60.9239 56.4487 63.7749 54.9248 66.8786 54.3074C69.9823 53.6901 73.1993 54.0069 76.1229 55.2179C79.0466 56.4289 81.5454 58.4797 83.3035 61.1109C85.0616 63.7421 86 66.8355 86 70C86 74.2435 84.3143 78.3131 81.3137 81.3137C78.3131 84.3143 74.2435 86 70 86Z" fill="white"/>
</g>
<defs>
<filter id="filter0_d_1_322" x="0" y="0" width="140" height="140" filterUnits="userSpaceOnUse" color-interpolation-filters="sRGB">
<feFlood flood-opacity="0" result="BackgroundImageFix"/>
<feColorMatrix in="SourceAlpha" type="matrix" values="0 0 0 0 0 0 0 0 0 0 0 0 0 0 0 0 0 0 127 0" result="hardAlpha"/>
<feOffset/>
<feGaussianBlur stdDeviation="25"/>
<feComposite in2="hardAlpha" operator="out"/>
<feColorMatrix type="matrix" values="0 0 0 0 0 0 0 0 0 0 0 0 0 0 0 0 0 0 0.7 0"/>
<feBlend mode="normal" in2="BackgroundImageFix" result="effect1_dropShadow_1_322"/>
<feBlend mode="normal" in="SourceGraphic" in2="effect1_dropShadow_1_322" result="shape"/>
</filter>
</defs>
</svg>
