<svg width="324" height="77" viewBox="0 0 324 77" fill="none" xmlns="http://www.w3.org/2000/svg">
<path fill-rule="evenodd" clip-rule="evenodd" d="M119.82 52.91H128.8V35.12L141.61 52.91H151.27V23.26H142.28V41.05L129.48 23.26H119.82V52.91Z" fill="#1F2972"/>
<path fill-rule="evenodd" clip-rule="evenodd" d="M79.6101 52.91H88.4101L91.1101 46.62H104.95L107.65 52.91H116.45L103.65 23.26H92.4201L79.6101 52.91ZM93.4501 41.23L98.0301 30.67L102.61 41.23H93.4501Z" fill="#1F2972"/>
<path fill-rule="evenodd" clip-rule="evenodd" d="M50.6401 28.65H62.7701V52.91H71.7501V28.65H83.8801V23.26H50.6401V28.65Z" fill="#1F2972"/>
<path d="M46.5901 23.26H37.6101V52.91H46.5901V23.26Z" fill="#1F2972"/>
<path fill-rule="evenodd" clip-rule="evenodd" d="M0.330078 28.65H12.4601V52.91H21.4401V28.65H33.5701V23.26H0.330078V28.65Z" fill="#1F2972"/>
<path d="M166.35 10.14H158.09V66.03H166.35V10.14Z" fill="#1F2972"/>
<path fill-rule="evenodd" clip-rule="evenodd" d="M221.97 47.52H231.85C232.88 47.52 233.42 47.11 233.42 46.26V29.91C233.42 29.06 232.88 28.65 231.85 28.65H221.97C220.94 28.65 220.4 29.05 220.4 29.91V46.26C220.4 47.11 220.94 47.52 221.97 47.52Z" fill="#1F2972"/>
<path fill-rule="evenodd" clip-rule="evenodd" d="M212.58 66.03V61.15H323.28V15.02H212.58V10.14H206.74V7.69003H245.34V0.0300293H188.03V0.0400314C184.24 0.260031 181.24 3.41003 181.24 7.25003C181.24 11.24 184.47 14.47 188.46 14.47C192.3 14.47 195.45 11.47 195.67 7.68003H198.93C198.9 8.53003 198.76 9.35003 198.54 10.13C198.5 10.26 198.46 10.39 198.42 10.52L198.41 10.54C198.3 10.87 198.17 11.2 198.03 11.52V11.53L197.95 11.71C197.92 11.77 197.89 11.83 197.86 11.89V11.9C197.77 12.09 197.67 12.27 197.57 12.45L197.56 12.46L197.47 12.62L197.46 12.64C197.39 12.76 197.32 12.87 197.24 12.99C197.2 13.05 197.16 13.1 197.12 13.16L197.01 13.32L197 13.34L196.89 13.49L196.88 13.5L196.87 13.51L196.76 13.66L196.75 13.67C196.71 13.72 196.67 13.77 196.63 13.82C196.54 13.93 196.45 14.03 196.36 14.14C196.32 14.19 196.27 14.24 196.23 14.29L196.22 14.3C196.13 14.4 196.04 14.49 195.95 14.58L195.91 14.62L195.79 14.74L195.78 14.75L195.64 14.88L195.61 14.91L195.5 15.02L195.48 15.04C195.43 15.08 195.39 15.12 195.34 15.16L195.31 15.18L195.19 15.28L195.16 15.3C193.35 16.8 191.02 17.71 188.48 17.71C185.94 17.71 183.6 16.8 181.79 15.3L181.64 15.17C181.59 15.13 181.54 15.08 181.49 15.04L181.47 15.03L181.33 14.9L181.32 14.89C181.27 14.84 181.22 14.8 181.17 14.75L181.04 14.62L181 14.61C180.76 14.37 180.53 14.11 180.32 13.85C180.15 13.64 179.98 13.42 179.83 13.19L179.71 13.02C179.64 12.91 179.56 12.79 179.49 12.67L179.48 12.65L179.39 12.49L179.38 12.48C179.28 12.3 179.18 12.12 179.09 11.93V11.92L179 11.74L178.92 11.56V11.55C178.78 11.23 178.65 10.91 178.54 10.57L178.53 10.55C178.49 10.42 178.45 10.29 178.41 10.16C178.15 9.24003 178.01 8.28003 178.01 7.28003C178.01 6.07003 178.22 4.91003 178.59 3.83003L174.24 6.53003V10.16H169.72V66.05H174.24V69.68L178.59 72.38C178.21 71.3 178.01 70.14 178.01 68.93C178.01 67.93 178.15 66.96 178.41 66.05C178.45 65.92 178.49 65.79 178.53 65.66L178.54 65.64C178.65 65.31 178.78 64.98 178.92 64.66V64.65L179 64.47L179.09 64.29V64.28C179.18 64.09 179.28 63.91 179.38 63.73L179.39 63.72L179.48 63.56L179.49 63.54C179.56 63.42 179.63 63.31 179.71 63.19C179.75 63.13 179.79 63.07 179.83 63.02C179.99 62.79 180.15 62.57 180.32 62.36C180.54 62.09 180.76 61.84 181 61.6L181.02 61.58L181.15 61.45C181.2 61.4 181.25 61.36 181.3 61.31L181.31 61.3L181.45 61.17L181.47 61.15L181.62 61.02L181.77 60.89C183.59 59.38 185.92 58.48 188.46 58.48C191 58.48 193.33 59.38 195.14 60.89L195.18 60.92L195.3 61.02L195.32 61.04L195.46 61.16L195.5 61.2L195.61 61.3L195.63 61.32L195.64 61.33L195.76 61.45L195.79 61.48L195.92 61.61L196.05 61.74L196.07 61.76C196.16 61.86 196.25 61.95 196.34 62.05L196.35 62.06C196.44 62.16 196.52 62.26 196.61 62.37L196.62 62.38L196.74 62.53L196.75 62.54L196.85 62.67L196.88 62.71L196.99 62.86L197 62.88L197.1 63.02L197.11 63.04L197.12 63.06C197.19 63.17 197.26 63.27 197.33 63.38V63.39L197.34 63.4L197.43 63.55L197.45 63.58L197.54 63.74V63.75L197.64 63.92L197.65 63.94L197.74 64.11V64.12L197.82 64.29L197.84 64.33L197.92 64.49L197.93 64.51L197.94 64.52L198.01 64.67L198.03 64.72L198.1 64.89V64.9L198.17 65.08V65.09L198.24 65.28V65.29C198.29 65.42 198.33 65.54 198.37 65.67L198.38 65.71C198.42 65.83 198.45 65.95 198.49 66.06C198.72 66.85 198.86 67.68 198.89 68.53H195.63C195.41 64.74 192.26 61.74 188.42 61.74C184.43 61.74 181.2 64.97 181.2 68.96C181.2 72.8 184.2 75.95 187.99 76.17V76.18H245.3V68.52H206.7V66.07H212.58V66.03ZM282.16 23.26H291.14V34.72L303.04 23.26H314.05L301.34 35.52L314.5 52.9H304.44L295.5 41.09L291.14 45.31V52.9H282.16V23.26ZM248.02 29.37C248.02 25.28 250.58 23.26 255.66 23.26H276.77V28.65H258.58C257.55 28.65 257.01 29.05 257.01 29.91V46.26C257.01 47.11 257.55 47.52 258.58 47.52H276.77V52.91H255.66C250.58 52.91 248.02 50.89 248.02 46.8V29.37ZM211.42 29.37C211.42 25.28 213.98 23.26 219.06 23.26H234.78C239.86 23.26 242.42 25.28 242.42 29.37V46.8C242.42 50.89 239.86 52.91 234.78 52.91H219.06C213.98 52.91 211.42 50.89 211.42 46.8V29.37ZM179.74 52.91V23.26H188.72V47.52H207.14V52.91H179.74Z" fill="#1F2972"/>
</svg>
